<svg width="55" height="57" viewBox="0 0 55 57" fill="none" xmlns="http://www.w3.org/2000/svg">
<g filter="url(#filter0_d_500_100)">
<path d="M27.5 0L33.0006 18.4229L50.8009 18.4229L36.4001 29.809L41.9007 48.2319L27.5 36.8459L13.0993 48.2319L18.5999 29.809L4.19912 18.4229L21.9994 18.4229L27.5 0Z" fill="#FFC502"/>
<path d="M27.5 1.74768L32.5215 18.566L32.6281 18.9229H33.0006L49.3623 18.9229L36.09 29.4167L35.824 29.6271L35.921 29.952L40.9686 46.8575L27.8101 36.4537L27.5 36.2085L27.1899 36.4537L14.0314 46.8575L19.079 29.952L19.176 29.6271L18.91 29.4167L5.63768 18.9229L21.9994 18.9229H22.3719L22.4785 18.566L27.5 1.74768Z" stroke="#342D14"/>
</g>
<defs>
<filter id="filter0_d_500_100" x="0.199219" y="0" width="54.6016" height="56.2319" filterUnits="userSpaceOnUse" color-interpolation-filters="sRGB">
<feFlood flood-opacity="0" result="BackgroundImageFix"/>
<feColorMatrix in="SourceAlpha" type="matrix" values="0 0 0 0 0 0 0 0 0 0 0 0 0 0 0 0 0 0 127 0" result="hardAlpha"/>
<feOffset dy="4"/>
<feGaussianBlur stdDeviation="2"/>
<feComposite in2="hardAlpha" operator="out"/>
<feColorMatrix type="matrix" values="0 0 0 0 0.729167 0 0 0 0 0.409204 0 0 0 0 0.133681 0 0 0 1 0"/>
<feBlend mode="normal" in2="BackgroundImageFix" result="effect1_dropShadow_500_100"/>
<feBlend mode="normal" in="SourceGraphic" in2="effect1_dropShadow_500_100" result="shape"/>
</filter>
</defs>
</svg>
